#!OML:ASF X:\für Bonn\!DataBase\2005_08_10_Bjorn_Final\c3d\bjorn.ASF
:FULLY-SPECIFIED
:DEGREES
129
root 0.14311 14.5587 3.49846 -170.514 1.94373 -180.707
lowerback 17.1892 -0.7022 5.84936
upperback 10.549 1.92314 0.32624
thorax 1.79728 2.05988 -3.21597
lowerneck -20.3714 -1.15483 -0.0258967
upperneck 3.73919 -1.64856 -2.87309
head 4.31592 -1.16542 -1.06489
rclavicle 1.43125e-014 1.59028e-014
rhumerus 76.3397 3.80891 -67.0049
rradius 13.1651
rwrist 39.6354
rhand -17.2699 11.0645
rfingers 7.12502
rthumb 8.9749 -18.7246
lclavicle 1.43125e-014 1.59028e-014
lhumerus 77.8334 -12.3461 77.4931
lradius 7.14537
lwrist -51.8591
lhand -25.4258 -6.10424
lfingers 7.12502
lthumb 1.10034 23.8727
rfemur -64.6873 -12.4324 15.1194
rtibia 100.32
rfoot -31.7496 15.3434
rtoes -29.5987
lfemur -65.0485 0.0710177 -19.0429
ltibia 104.036
lfoot -25.6361 0.172546
ltoes -35.5552
130
root 0.144543 14.8081 3.47477 -170.363 1.96174 -180.684
lowerback 16.7185 -0.62663 5.8646
upperback 10.449 1.93849 0.3429
thorax 1.93522 2.04679 -3.19561
lowerneck -20.0819 -1.18563 0.00312792
upperneck 3.90019 -1.66491 -2.95017
head 4.32227 -1.16761 -1.09268
rclavicle -5.56597e-015 -1.03368e-014
rhumerus 76.3555 3.77422 -67.1811
rradius 13.112
rwrist 39.9115
rhand -17.2643 10.9762
rfingers 7.12502
rthumb 8.98031 -18.8127
lclavicle -5.56597e-015 -1.03368e-014
lhumerus 77.9027 -12.3276 77.4409
lradius 7.08775
lwrist -51.928
lhand -25.3083 -6.05276
lfingers 7.12502
lthumb 1.21381 23.9235
rfemur -63.1497 -11.9742 15.1834
rtibia 97.7737
rfoot -31.5763 15.0037
rtoes -29.3647
lfemur -63.5075 -0.292708 -19.0069
ltibia 101.499
lfoot -25.4551 0.595184
ltoes -35.3348
131
root 0.146923 15.0528 3.45073 -170.215 1.9458 -180.69
lowerback 16.1902 -0.567181 5.87279
upperback 10.3766 1.93162 0.332922
thorax 2.13274 2.0274 -3.19309
lowerneck -19.8208 -1.19611 0.115434
upperneck 4.06524 -1.67187 -3.06567
head 4.3332 -1.16698 -1.14527
rclavicle -1.59028e-014 -1.98785e-014
rhumerus 76.4404 3.74788 -67.1843
rradius 13.0078
rwrist 39.9843
rhand -17.2582 10.8833
rfingers 7.12502
rthumb 8.98623 -18.9053
lclavicle -1.59028e-014 -1.98785e-014
lhumerus 77.9762 -12.3301 77.3492
lradius 7.07959
lwrist -52.0992
lhand -25.17 -5.99233
lfingers 7.12502
lthumb 1.34739 23.9832
rfemur -61.625 -11.6034 15.2303
rtibia 95.205
rfoot -31.3227 14.7158
rtoes -28.9811
lfemur -61.9827 -0.6299 -18.9934
ltibia 98.9315
lfoot -25.2736 0.940933
ltoes -35.0266
132
root 0.1503 15.2935 3.42471 -170.084 1.92162 -180.656
lowerback 15.6406 -0.498084 5.89048
upperback 10.2919 1.93502 0.358914
thorax 2.32953 2.01102 -3.15912
lowerneck -19.4639 -1.21857 0.172078
upperneck 4.17586 -1.68544 -3.16185
head 4.31278 -1.16852 -1.18196
rclavicle 7.95139e-015 0
rhumerus 76.4215 3.72667 -67.3812
rradius 12.9591
rwrist 40.2373
rhand -17.2122 10.7683
rfingers 7.12502
rthumb 9.03056 -19.0184
lclavicle 7.95139e-015 0
lhumerus 77.959 -12.3441 77.3056
lradius 7.09914
lwrist -52.3486
lhand -25.0534 -5.9264
lfingers 7.12502
lthumb 1.46004 24.0484
rfemur -60.0753 -11.2676 15.3145
rtibia 92.6148
rfoot -31.0415 14.5034
rtoes -28.5164
lfemur -60.4291 -0.907654 -18.9235
ltibia 96.3286
lfoot -25.1847 1.10986
ltoes -34.3702
133
root 0.15366 15.5319 3.39654 -169.96 1.90226 -180.657
lowerback 15.053 -0.428366 5.88591
upperback 10.2088 1.93198 0.353989
thorax 2.54923 1.99128 -3.14317
lowerneck -19.1144 -1.24447 0.248191
upperneck 4.32847 -1.70655 -3.23408
head 4.30613 -1.17106 -1.21521
rclavicle -1.59028e-014 -1.98785e-014
rhumerus 76.3128 3.68741 -67.7172
rradius 12.9875
rwrist 40.5921
rhand -17.0884 10.7112
rfingers 7.12502
rthumb 9.15003 -19.0703
lclavicle -1.59028e-014 -1.98785e-014
lhumerus 77.8749 -12.3993 77.2381
lradius 7.17733
lwrist -52.6546
lhand -24.9401 -5.73642
lfingers 7.12502
lthumb 1.56939 24.2376
rfemur -58.5334 -10.9982 15.3621
rtibia 89.9985
rfoot -30.7248 14.2895
rtoes -28.1893
lfemur -58.8331 -1.15934 -18.9035
ltibia 93.6636
lfoot -25.0936 1.27464
ltoes -33.5923
134
root 0.157467 15.7712 3.36763 -169.85 1.89507 -180.654
lowerback 14.5061 -0.351426 5.86109
upperback 10.0994 1.93631 0.367069
thorax 2.71987 1.97009 -3.10048
lowerneck -18.6686 -1.26234 0.308069
upperneck 4.44263 -1.7153 -3.28869
head 4.2729 -1.16536 -1.23773
rclavicle -4.77083e-015 9.54166e-015
rhumerus 76.1685 3.7236 -67.7878
rradius 12.9944
rwrist 40.6744
rhand -16.9837 10.6049
rfingers 7.12502
rthumb 9.25112 -19.1722
lclavicle -4.77083e-015 9.54166e-015
lhumerus 77.7461 -12.4237 77.1978
lradius 7.23061
lwrist -52.9828
lhand -24.7871 -5.67328
lfingers 7.12502
lthumb 1.71719 24.2996
rfemur -56.9407 -10.7485 15.4151
rtibia 87.312
rfoot -30.3548 14.0951
rtoes -27.8496
lfemur -57.1871 -1.36852 -18.8786
ltibia 90.929
lfoot -25.0396 1.35949
ltoes -32.6816
135
root 0.162382 16.0117 3.33704 -169.756 1.85124 -180.638
lowerback 13.953 -0.288053 5.87977
upperback 10.0076 1.93303 0.371824
thorax 2.91562 1.95114 -3.08922
lowerneck -18.2189 -1.2891 0.372058
upperneck 4.50463 -1.742 -3.34025
head 4.222 -1.16928 -1.26105
rclavicle -3.22031e-014 -3.10104e-014
rhumerus 76.0334 3.71216 -67.9129
rradius 12.9821
rwrist 40.9234
rhand -16.9087 10.5492
rfingers 7.12502
rthumb 9.32339 -19.2246
lclavicle -3.22031e-014 -3.10104e-014
lhumerus 77.6268 -12.4908 77.1448
lradius 7.31491
lwrist -53.1397
lhand -24.6671 -5.66693
lfingers 7.12502
lthumb 1.83311 24.3049
rfemur -55.2958 -10.5368 15.4864
rtibia 84.5726
rfoot -29.9947 13.8429
rtoes -27.7118
lfemur -55.4899 -1.56113 -18.8291
ltibia 88.1101
lfoot -24.9248 1.32495
ltoes -31.4813
136
root 0.167211 16.2502 3.30522 -169.668 1.82378 -180.637
lowerback 13.3828 -0.217085 5.8791
upperback 9.90646 1.93389 0.36332
thorax 3.11216 1.93225 -3.08141
lowerneck -17.7139 -1.31063 0.43671
upperneck 4.57984 -1.76284 -3.33967
head 4.16675 -1.16528 -1.267
rclavicle -9.93923e-015 4.6118e-014
rhumerus 75.8994 3.70515 -68.0405
rradius 12.9274
rwrist 41.1193
rhand -16.8226 10.507
rfingers 7.12502
rthumb 9.40649 -19.2631
lclavicle -9.93923e-015 4.6118e-014
lhumerus 77.4804 -12.5509 77.0781
lradius 7.405
lwrist -53.2066
lhand -24.5072 -5.66179
lfingers 7.12502
lthumb 1.9875 24.3087
rfemur -53.6344 -10.3604 15.5353
rtibia 81.7711
rfoot -29.5273 13.682
rtoes -27.5037
lfemur -53.753 -1.69832 -18.811
ltibia 85.2253
lfoot -24.784 1.33199
ltoes -30.5335
137
root 0.174259 16.4869 3.2718 -169.577 1.78022 -180.618
lowerback 12.7547 -0.136721 5.86325
upperback 9.80902 1.94122 0.374269
thorax 3.34442 1.91589 -3.04313
lowerneck -17.2499 -1.3436 0.479844
upperneck 4.66879 -1.79637 -3.32437
head 4.1217 -1.16825 -1.26664
rclavicle 3.06128e-014 -2.8625e-014
rhumerus 75.7631 3.66553 -68.3477
rradius 12.8443
rwrist 41.6057
rhand -16.7546 10.4762
rfingers 7.12502
rthumb 9.47215 -19.291
lclavicle 3.06128e-014 -2.8625e-014
lhumerus 77.3421 -12.6338 77.0239
lradius 7.48902
lwrist -53.1264
lhand -24.3896 -5.74206
lfingers 7.12502
lthumb 2.10107 24.2273
rfemur -51.954 -10.2062 15.6076
rtibia 78.9321
rfoot -29.0062 13.5478
rtoes -27.2181
lfemur -52.0067 -1.79243 -18.7671
ltibia 82.2911
lfoot -24.5722 1.29251
ltoes -29.5331
138
root 0.180283 16.7195 3.23775 -169.495 1.72002 -180.621
lowerback 12.107 -0.0717565 5.83709
upperback 9.70659 1.92499 0.379764
thorax 3.58119 1.88677 -3.00248
lowerneck -16.842 -1.36839 0.473736
upperneck 4.7993 -1.81084 -3.27398
head 4.099 -1.16181 -1.24697
rclavicle -2.5842e-014 1.59028e-015
rhumerus 75.6966 3.67794 -68.3897
rradius 12.7075
rwrist 41.7747
rhand -16.6512 10.4479
rfingers 7.12502
rthumb 9.57192 -19.3146
lclavicle -2.5842e-014 1.59028e-015
lhumerus 77.1783 -12.6787 76.9657
lradius 7.58552
lwrist -52.8275
lhand -24.2739 -5.88967
lfingers 7.12502
lthumb 2.21286 24.0786
rfemur -50.2622 -10.1213 15.6633
rtibia 76.0611
rfoot -28.4347 13.396
rtoes -27.0615
lfemur -50.2545 -1.89531 -18.7453
ltibia 79.33
lfoot -24.3112 1.19547
ltoes -28.4441
139
root 0.18806 16.9453 3.20271 -169.432 1.67928 -180.621
lowerback 11.4995 0.00871257 5.78152
upperback 9.58209 1.92857 0.406264
thorax 3.77404 1.86268 -2.92757
lowerneck -16.5324 -1.39029 0.479157
upperneck 5.0492 -1.81532 -3.28125
head 4.12809 -1.15545 -1.24851
rclavicle 2.46493e-014 5.40694e-014
rhumerus 75.6366 3.69732 -68.4706
rradius 12.5428
rwrist 41.9493
rhand -16.5612 10.473
rfingers 7.12502
rthumb 9.65875 -19.2855
lclavicle 2.46493e-014 5.40694e-014
lhumerus 77.0129 -12.7256 76.9425
lradius 7.64472
lwrist -52.4706
lhand -24.2097 -6.07536
lfingers 7.12502
lthumb 2.27482 23.8923
rfemur -48.5593 -10.0472 15.716
rtibia 73.1819
rfoot -27.8006 13.3196
rtoes -26.8456
lfemur -48.4774 -1.94674 -18.7222
ltibia 76.3434
lfoot -23.9471 1.08089
ltoes -27.3661
140
root 0.19554 17.1646 3.16644 -169.371 1.61875 -180.62
lowerback 10.8755 0.0751261 5.7625
upperback 9.47165 1.91958 0.405243
thorax 3.99421 1.83766 -2.90007
lowerneck -16.2824 -1.41259 0.471837
upperneck 5.3036 -1.82565 -3.21071
head 4.16823 -1.14834 -1.22507
rclavicle -3.02153e-014 1.35174e-014
rhumerus 75.6915 3.67096 -68.5751
rradius 12.3037
rwrist 42.0653
rhand -16.4179 10.5451
rfingers 7.12502
rthumb 9.79697 -19.207
lclavicle -3.02153e-014 1.35174e-014
lhumerus 76.9091 -12.784 76.871
lradius 7.69701
lwrist -51.978
lhand -24.1883 -6.28512
lfingers 7.12502
lthumb 2.29552 23.6823
rfemur -46.8641 -10.0425 15.7727
rtibia 70.3112
rfoot -27.1278 13.2798
rtoes -26.5913
lfemur -46.7098 -1.99606 -18.6927
ltibia 73.3403
lfoot -23.4893 0.844563
ltoes -25.8856
141
root 0.204258 17.3806 3.12979 -169.302 1.5447 -180.602
lowerback 10.3059 0.148788 5.78091
upperback 9.3148 1.92193 0.390739
thorax 4.13967 1.81519 -2.91222
lowerneck -15.9563 -1.44381 0.531718
upperneck 5.54044 -1.86053 -3.15902
head 4.18952 -1.1521 -1.21915
rclavicle -2.46493e-014 -2.54444e-014
rhumerus 75.6637 3.62273 -68.6241
rradius 12.161
rwrist 42.0405
rhand -16.1886 10.5944
rfingers 7.12502
rthumb 10.0182 -19.1471
lclavicle -2.46493e-014 -2.54444e-014
lhumerus 76.7821 -12.8772 76.7811
lradius 7.74258
lwrist -51.5411
lhand -24.2237 -6.47318
lfingers 7.12502
lthumb 2.26128 23.4946
rfemur -45.199 -10.0366 15.8401
rtibia 67.4609
rfoot -26.3691 13.2895
rtoes -26.2322
lfemur -44.9419 -2.01602 -18.6469
ltibia 70.3023
lfoot -22.9931 0.618394
ltoes -24.6097
